<svg width="30" height="30" viewBox="0 0 30 30" fill="none" xmlns="http://www.w3.org/2000/svg">
<path d="M28.8837 6.15361L23.7428 1.01485C23.072 0.385683 22.1934 0.0249529 21.274 0.00124706C20.3546 -0.0224588 19.4586 0.292512 18.7562 0.886277L1.88273 17.7576C1.27511 18.3691 0.896719 19.1713 0.811261 20.0291L0.00765955 27.8465C-0.0159213 28.1066 0.0150887 28.3688 0.0987027 28.6162C0.182317 28.8636 0.316691 29.0908 0.493215 29.2833C0.669739 29.4757 0.884521 29.6292 1.1238 29.7338C1.36308 29.8385 1.62157 29.892 1.88273 29.8909H2.04988L9.87159 29.1773C10.7266 29.0916 11.5281 28.7144 12.1388 28.108L29.0144 11.2324C29.6693 10.5405 30.0233 9.61726 29.9988 8.66491C29.9743 7.71256 29.5733 6.80875 28.8837 6.15147V6.15361ZM22.5085 12.4174L17.4833 7.39009L21.1391 3.64209L26.2586 8.76371L22.5085 12.4196V12.4174Z" fill="#5357B6"/>
</svg>
